<?xml version="1.0" encoding="UTF-8" standalone="no"?>
<!-- Generator: Adobe Illustrator 20.1.0, SVG Export Plug-In . SVG Version: 6.00 Build 0)  -->

<svg
   xmlns:dc="http://purl.org/dc/elements/1.1/"
   xmlns:cc="http://creativecommons.org/ns#"
   xmlns:rdf="http://www.w3.org/1999/02/22-rdf-syntax-ns#"
   xmlns:svg="http://www.w3.org/2000/svg"
   xmlns="http://www.w3.org/2000/svg"
   xmlns:sodipodi="http://sodipodi.sourceforge.net/DTD/sodipodi-0.dtd"
   xmlns:inkscape="http://www.inkscape.org/namespaces/inkscape"
   version="1.1"
   id="Layer_1"
   x="0px"
   y="0px"
   viewBox="0 0 16 13"
   xml:space="preserve"
   sodipodi:docname="twitter.svg"
   width="16"
   height="13"
   inkscape:version="0.92.3 (2405546, 2018-03-11)"><metadata
   id="metadata831"><rdf:RDF><cc:Work
       rdf:about=""><dc:format>image/svg+xml</dc:format><dc:type
         rdf:resource="http://purl.org/dc/dcmitype/StillImage" /><dc:title></dc:title></cc:Work></rdf:RDF></metadata><defs
   id="defs829" /><sodipodi:namedview
   pagecolor="#ffffff"
   bordercolor="#666666"
   borderopacity="1"
   objecttolerance="10"
   gridtolerance="10"
   guidetolerance="10"
   inkscape:pageopacity="0"
   inkscape:pageshadow="2"
   inkscape:window-width="1920"
   inkscape:window-height="996"
   id="namedview827"
   showgrid="false"
   fit-margin-top="0"
   fit-margin-left="0"
   fit-margin-right="0"
   fit-margin-bottom="0"
   inkscape:zoom="63.769231"
   inkscape:cx="8.0784077"
   inkscape:cy="6.5"
   inkscape:window-x="-8"
   inkscape:window-y="-8"
   inkscape:window-maximized="1"
   inkscape:current-layer="Layer_1" />
<path
   d="M 13.9,2.1 C 14.6,1.7 15.1,1 15.4,0.3 14.8,0.7 14,1 13.3,1.1 12.7,0.5 11.8,0 10.9,0 9.1,0 7.7,1.5 7.7,3.3 7.7,3.6 7.7,3.8 7.8,4.1 5.1,3.9 2.7,2.5 1.1,0.6 0.8,1.1 0.6,1.7 0.6,2.2 0.6,3.4 1.2,4.4 2.1,5 1.6,5 1,4.8 0.6,4.6 v 0 c 0,1.6 1.2,3 2.7,3.3 -0.4,0 -0.6,0 -0.9,0 -0.2,0 -0.4,0 -0.6,-0.1 0.4,1.3 1.7,2.3 3,2.3 -1.1,0.9 -2.6,1.4 -4,1.4 -0.3,0 -0.5,0 -0.8,0 1.5,0.9 3.1,1.5 5,1.5 6,0 9.3,-5 9.3,-9.3 0,-0.1 0,-0.3 0,-0.4 C 15,2.7 15.5,2.2 16,1.6 15.2,1.8 14.6,2 13.9,2.1 Z"
   id="path824"
   inkscape:connector-curvature="0" />
</svg>