<?xml version="1.0" encoding="UTF-8" standalone="no"?><svg xmlns="http://www.w3.org/2000/svg" xmlns:xlink="http://www.w3.org/1999/xlink"><symbol viewBox="0 0 5.695 9.131" id="arrow" xmlns="http://www.w3.org/2000/svg"><path d="M1.13 0L0 1.13l3.434 3.436L0 8l1.13 1.13 4.565-4.566z"/></symbol><symbol viewBox="0 0 72 26" id="decor" xmlns="http://www.w3.org/2000/svg"><path d="M72 0H0c7.412 15.594 20.762 26 36 26 15.24 0 28.59-10.406 36-26"/></symbol><symbol viewBox="0 0 112 336" id="decor-l" xmlns="http://www.w3.org/2000/svg"><path d="M0 0v336c67.176-34.59 112-96.888 112-168C112 96.88 67.176 34.582 0 0"/></symbol><symbol viewBox="0 0 184 124" id="decor-r" xmlns="http://www.w3.org/2000/svg"><path d="M370.5.5H.5c38.09 73.774 106.693 123 185 123 78.317 0 146.919-49.226 185-123"/></symbol><symbol viewBox="0 0 23 20" id="telegram" xmlns="http://www.w3.org/2000/svg"><path d="M.4 9.6l5.3 2 2.1 6.6c.1.4.6.6 1 .3l3-2.4c.3-.3.8-.3 1.1 0l5.3 3.9c.4.3.9.1 1-.4L23 .8c.1-.5-.4-.9-.8-.7L.4 8.4c-.5.2-.5 1 0 1.2zm7 .9l10.4-6.4c.2-.1.4.2.2.3l-8.5 7.9c-.3.3-.5.7-.6 1.1l-.3 2.2c0 .3-.4.3-.5 0L7 11.7c-.2-.5 0-.9.4-1.2z"/></symbol><symbol viewBox="0 0 16 13" id="twitter" xmlns="http://www.w3.org/2000/svg"><path d="M13.9 2.1c.7-.4 1.2-1.1 1.5-1.8-.6.4-1.4.7-2.1.8C12.7.5 11.8 0 10.9 0 9.1 0 7.7 1.5 7.7 3.3c0 .3 0 .5.1.8C5.1 3.9 2.7 2.5 1.1.6.8 1.1.6 1.7.6 2.2c0 1.2.6 2.2 1.5 2.8C1.6 5 1 4.8.6 4.6c0 1.6 1.2 3 2.7 3.3h-.9c-.2 0-.4 0-.6-.1.4 1.3 1.7 2.3 3 2.3-1.1.9-2.6 1.4-4 1.4H0c1.5.9 3.1 1.5 5 1.5 6 0 9.3-5 9.3-9.3v-.4c.7-.6 1.2-1.1 1.7-1.7-.8.2-1.4.4-2.1.5z"/></symbol></svg>