<svg xmlns="http://www.w3.org/2000/svg" xmlns:xlink="http://www.w3.org/1999/xlink" width="155" height="27" viewBox="0 0 155 27">
    <defs>
        <path id="a" d="M.447.262h17.505V20.72H.447z"/>
        <path id="c" d="M.03.159h7.748V19.68H.029z"/>
        <path id="e" d="M0 26.738h154.72V.519H0z"/>
    </defs>
    <g fill="none" fill-rule="evenodd">
        <g transform="translate(25.442 .257)">
            <mask id="b" fill="#fff">
                <use xlink:href="#a"/>
            </mask>
            <path fill="#444B69" d="M7.548 16.92c3.566 0 6.371-2.28 6.371-6.43 0-4.12-2.805-6.429-6.37-6.429h-3.07V16.92h3.07zm0-16.658c5.758 0 10.404 4.296 10.404 10.229 0 5.961-4.646 10.228-10.404 10.228H.447V.262h7.101z" mask="url(#b)"/>
        </g>
        <path fill="#444B69" d="M67.341 20.976h-3.74V1.454h3.74v4.91h4.008V9.96h-4.008z"/>
        <g transform="translate(146.942 1.296)">
            <mask id="d" fill="#fff">
                <use xlink:href="#c"/>
            </mask>
            <path fill="#444B69" d="M3.77 19.68H.03V.16h3.74v4.91h4.008v3.594H3.77z" mask="url(#d)"/>
        </g>
        <path fill="#444B69" d="M91.295 20.976V.52h4.033v16.657h9.205v3.8zM106.312 3.12c0-1.081.964-1.928 2.163-1.928 1.227 0 2.191.847 2.191 1.928 0 1.082-.964 1.93-2.191 1.93-1.199 0-2.163-.848-2.163-1.93"/>
        <mask id="f" fill="#fff">
            <use xlink:href="#e"/>
        </mask>
        <path fill="#444B69" d="M106.633 20.977h3.712V6.364h-3.712zM113.162 26.738h14.612v-3.712h-14.612zM118.533 8.592h3.712V3.586h-3.712zM56.802 20.977h3.712V6.364h-3.712zM84.401 20.977h3.712V6.364H84.4z" mask="url(#f)"/>
        <path fill="#444B69" d="M52.39 6.1a7.57 7.57 0 1 0 0 15.14 7.57 7.57 0 0 0 0-15.14m0 3.642a3.933 3.933 0 0 1 3.929 3.93 3.933 3.933 0 0 1-3.93 3.928 3.933 3.933 0 0 1-3.928-3.929 3.933 3.933 0 0 1 3.929-3.929M79.989 6.1a7.57 7.57 0 1 0 0 15.142 7.57 7.57 0 0 0 0-15.142m0 3.642a3.933 3.933 0 0 1 3.929 3.93 3.933 3.933 0 0 1-3.93 3.928 3.933 3.933 0 0 1-3.928-3.929 3.933 3.933 0 0 1 3.929-3.929M120.237 21.241a7.57 7.57 0 1 0 0-15.14 7.57 7.57 0 1 0 0 15.14m0-3.641a3.934 3.934 0 0 1-3.93-3.93 3.934 3.934 0 0 1 3.93-3.928 3.934 3.934 0 0 1 3.929 3.929 3.934 3.934 0 0 1-3.93 3.929" mask="url(#f)"/>
        <path fill="#FBB33B" d="M0 .542V21.05c4.089-2.111 6.817-5.914 6.817-10.254S4.089 2.653 0 .542" mask="url(#f)"/>
        <path fill="#C90E86" d="M6.817.542V21.05c4.088-2.111 6.817-5.914 6.817-10.254S10.905 2.653 6.817.542" mask="url(#f)"/>
        <path fill="#7C0E86" d="M13.634.542V21.05c4.088-2.111 6.816-5.914 6.816-10.254S17.722 2.653 13.634.542" mask="url(#f)"/>
        <path fill="#444B69" d="M137.982 6.16c-1.577 0-3.126.525-4.061 1.725V.519h-3.713V20.977h3.713v-7.16c0-2.807 1.344-4.064 3.477-4.064 1.958 0 3.244 1.024 3.244 3.741v7.483h3.71v-7.716c0-4.238-2.161-7.101-6.37-7.101" mask="url(#f)"/>
    </g>
</svg>
