<?xml version="1.0" encoding="UTF-8" standalone="no"?>
<svg
   xmlns:dc="http://purl.org/dc/elements/1.1/"
   xmlns:cc="http://creativecommons.org/ns#"
   xmlns:rdf="http://www.w3.org/1999/02/22-rdf-syntax-ns#"
   xmlns:svg="http://www.w3.org/2000/svg"
   xmlns="http://www.w3.org/2000/svg"
   xmlns:sodipodi="http://sodipodi.sourceforge.net/DTD/sodipodi-0.dtd"
   xmlns:inkscape="http://www.inkscape.org/namespaces/inkscape"
   width="49.877335"
   height="34.877335"
   viewBox="0 0 49.877335 34.877335"
   version="1.1"
   id="svg1302"
   sodipodi:docname="market-data.svg"
   inkscape:version="0.92.3 (2405546, 2018-03-11)">
  <metadata
     id="metadata1308">
    <rdf:RDF>
      <cc:Work
         rdf:about="">
        <dc:format>image/svg+xml</dc:format>
        <dc:type
           rdf:resource="http://purl.org/dc/dcmitype/StillImage" />
        <dc:title></dc:title>
      </cc:Work>
    </rdf:RDF>
  </metadata>
  <defs
     id="defs1306" />
  <sodipodi:namedview
     pagecolor="#ffffff"
     bordercolor="#666666"
     borderopacity="1"
     objecttolerance="10"
     gridtolerance="10"
     guidetolerance="10"
     inkscape:pageopacity="0"
     inkscape:pageshadow="2"
     inkscape:window-width="1920"
     inkscape:window-height="996"
     id="namedview1304"
     showgrid="false"
     fit-margin-top="0"
     fit-margin-left="0"
     fit-margin-right="0"
     fit-margin-bottom="0"
     inkscape:zoom="6.1219512"
     inkscape:cx="101.48013"
     inkscape:cy="-29.969333"
     inkscape:window-x="-8"
     inkscape:window-y="-8"
     inkscape:window-maximized="1"
     inkscape:current-layer="svg1302" />
  <g
     style="fill:none;fill-rule:nonzero"
     id="g1140"
     transform="translate(0,0.9386673)">
    <rect
       style="fill:#f6ae3a"
       x="0"
       id="rect1126"
       rx="2"
       y="10"
       height="7"
       width="11" />
    <rect
       style="fill:#f6ae3a"
       id="rect1128"
       rx="2"
       y="4"
       x="24"
       height="18"
       width="11" />
    <rect
       style="opacity:0.5;fill:#f6ae3a"
       id="rect1130"
       rx="2"
       y="16"
       x="12"
       height="14"
       width="11" />
    <path
       style="fill:#fad69c"
       inkscape:connector-curvature="0"
       id="path1132"
       d="m 17,30 h 1 v 2.5 a 0.5,0.5 0 1 1 -1,0 z" />
    <path
       style="fill:#f6ae3a"
       inkscape:connector-curvature="0"
       id="path1134"
       d="m 29,22 h 1 v 3.5 a 0.5,0.5 0 1 1 -1,0 z M 5,17 h 1 v 2.5 a 0.5,0.5 0 1 1 -1,0 z" />
    <path
       style="fill:#fad69c"
       inkscape:connector-curvature="0"
       id="path1136"
       d="m 17,16 h 1 v -2.5 a 0.5,0.5 0 1 0 -1,0 z" />
    <path
       style="fill:#f6ae3a"
       inkscape:connector-curvature="0"
       id="path1138"
       d="m 29,4 h 1 V 0.5 a 0.5,0.5 0 1 0 -1,0 z M 5,10 H 6 V 7.5 a 0.5,0.5 0 0 0 -1,0 z" />
  </g>
</svg>
